<svg width="222" height="245" viewBox="0 0 222 245" fill="none" xmlns="http://www.w3.org/2000/svg">
<g filter="url(#filter0_d)">
<path d="M138.352 66.5782C139.386 63.6606 142.589 62.1331 145.506 63.1666L189.385 78.7084L145.36 203L90.0311 203L138.352 66.5782Z" fill="#C4C4C4"/>
<path d="M80.228 168.767C79.1946 171.685 75.9917 173.212 73.074 172.179L30.7805 157.198L74.772 33L128.317 33L80.228 168.767Z" fill="#C4C4C4"/>
<path fill-rule="evenodd" clip-rule="evenodd" d="M111 65.8891C89.7207 65.7452 69.7341 78.9351 62.2293 100.123C54.7849 121.14 61.8373 143.773 78.1786 157.1L111 65.8891ZM143.3 77.5896L111 168.662C132.02 168.52 151.657 155.387 159.081 134.428C166.499 113.483 159.521 90.9346 143.3 77.5896Z" fill="white"/>
<path d="M113.719 48.9377L72.5525 165.159L26.0001 165.159" stroke="black" stroke-width="18.6813" stroke-linejoin="round"/>
<path d="M105.533 186.75L126.116 128.639M196 70.5283L146.699 70.5285L126.116 128.639M126.116 128.639L158.859 107.536" stroke="black" stroke-width="18.6813" stroke-linejoin="round"/>
</g>
<defs>
<filter id="filter0_d" x="0.505342" y="0.891874" width="220.989" height="243.496" filterUnits="userSpaceOnUse" color-interpolation-filters="sRGB">
<feFlood flood-opacity="0" result="BackgroundImageFix"/>
<feColorMatrix in="SourceAlpha" type="matrix" values="0 0 0 0 0 0 0 0 0 0 0 0 0 0 0 0 0 0 127 0"/>
<feOffset dy="4.35897"/>
<feGaussianBlur stdDeviation="9.80769"/>
<feColorMatrix type="matrix" values="0 0 0 0 0 0 0 0 0 0 0 0 0 0 0 0 0 0 0.25 0"/>
<feBlend mode="normal" in2="BackgroundImageFix" result="effect1_dropShadow"/>
<feBlend mode="normal" in="SourceGraphic" in2="effect1_dropShadow" result="shape"/>
</filter>
</defs>
</svg>
