<svg width="50" height="50" viewBox="0 0 50 50" fill="none" xmlns="http://www.w3.org/2000/svg">
<g clip-path="url(#clip0)">
<path d="M33.0447 9.87597C33.3487 9.01785 34.2907 8.5686 35.1489 8.87255L48.0542 13.4437L30.4171 63.2376C30.1131 64.0957 29.1711 64.5449 28.3129 64.241L15.4076 59.6698L33.0447 9.87597Z" fill="#E6E6E6"/>
<path d="M16.1526 -5.10426C16.4565 -5.96238 17.3986 -6.41162 18.2567 -6.10767L30.696 -1.70163L15.9493 39.9315C15.6454 40.7897 14.7033 41.2389 13.8452 40.935L1.40596 36.5289L16.1526 -5.10426Z" fill="#E6E6E6"/>
<path fill-rule="evenodd" clip-rule="evenodd" d="M25 9.67329C18.7414 9.63097 12.8629 13.5104 10.6556 19.7421C8.46611 25.9236 10.5403 32.5803 15.3466 36.5L25 9.67329ZM34.5 13.1146L25 39.9006C31.1824 39.8587 36.9579 35.9961 39.1413 29.8318C41.3233 23.6716 39.2709 17.0396 34.5 13.1146Z" fill="white"/>
<path d="M25.7996 4.68757L13.6919 38.8704L3.04983e-05 38.8704" stroke="black" stroke-width="5.49451" stroke-linejoin="round"/>
<path d="M23.392 45.2206L29.4459 28.1292M50 11.0378L35.4997 11.0378L29.4459 28.1292M29.4459 28.1292L39.0763 21.9225" stroke="black" stroke-width="5.49451" stroke-linejoin="round"/>
</g>
<defs>
<clipPath id="clip0">
<rect width="50" height="50" fill="white"/>
</clipPath>
</defs>
</svg>
