<svg width="151" height="151" viewBox="0 0 151 151" fill="none" xmlns="http://www.w3.org/2000/svg">
<path d="M134.218 109.51C140.871 104.129 145.134 95.9037 145.134 86.7013C145.134 70.5289 131.978 57.3727 115.806 57.3727C112.465 57.3727 109.255 57.9349 106.262 58.9682C102.876 55.9487 99.0753 53.4557 95.0006 51.5572C101.058 46.1806 104.883 38.341 104.883 29.6235C104.883 13.4512 91.7265 0.294922 75.5553 0.294922C59.383 0.294922 46.2267 13.4512 46.2267 29.6235C46.2267 38.3226 50.0353 46.1484 56.0709 51.5238C51.9719 53.4246 48.1495 55.928 44.7452 58.9613C41.7487 57.9326 38.5357 57.3727 35.1936 57.3727C18.9384 57.3727 5.71296 70.5969 5.71296 86.8533C5.71296 96.0362 9.93403 104.251 16.5375 109.663C6.6127 115.893 0 126.933 0 139.491V144.59C0 147.83 2.6255 150.455 5.86618 150.455H145.134C148.375 150.455 151 147.83 151 144.59V139.491C151 126.831 144.279 115.712 134.218 109.51ZM133.403 86.7013C133.403 96.4037 125.509 104.298 115.806 104.298C106.103 104.298 98.209 96.4037 98.209 86.7013C98.209 76.9976 106.103 69.1039 115.806 69.1039C125.509 69.1039 133.403 76.9976 133.403 86.7013ZM75.5553 12.0261C85.2578 12.0261 93.1527 19.9199 93.1527 29.6235C93.1527 39.326 85.2578 47.2198 75.5553 47.2198C65.8528 47.2198 57.9579 39.326 57.9579 29.6235C57.9579 19.9199 65.8528 12.0261 75.5553 12.0261ZM95.633 65.4323C89.9973 70.7801 86.4778 78.3375 86.4778 86.7013C86.4778 95.9037 90.7403 104.129 97.3933 109.51C87.5365 115.586 80.8869 126.382 80.622 138.724H70.378C70.1142 126.485 63.5718 115.765 53.8497 109.663C60.4532 104.251 64.6743 96.0362 64.6743 86.8533C64.6743 78.4112 61.1064 70.7882 55.4015 65.4081C67.3297 56.7817 83.7117 56.7897 95.633 65.4323ZM17.4442 86.8533C17.4442 77.0656 25.4071 69.1039 35.1936 69.1039C44.9813 69.1039 52.9431 77.0656 52.9431 86.8533C52.9431 95.7275 46.396 103.102 37.879 104.399C36.992 104.332 36.0968 104.298 35.1936 104.298C34.2904 104.298 33.3953 104.332 32.5094 104.399C23.9912 103.102 17.4442 95.7275 17.4442 86.8533ZM11.7439 138.724C12.1194 127.078 21.027 117.555 32.4045 116.2C33.3227 116.287 34.2524 116.334 35.1936 116.334C36.1348 116.334 37.0645 116.287 37.9839 116.2C49.3614 117.556 58.2678 127.078 58.6445 138.724H11.7439ZM92.3555 138.724C92.7621 126.14 103.126 116.029 115.806 116.029C128.487 116.029 138.851 126.14 139.256 138.724H92.3555Z" fill="#EDA69C"/>
</svg>
