<svg width="111" height="113" viewBox="0 0 111 113" fill="none" xmlns="http://www.w3.org/2000/svg">
<path d="M107.015 66.9196C99.6358 60.7598 91.7788 56.2672 88.0211 54.2526V44.4338C89.843 42.4886 90.8679 39.8718 90.8679 37.1393V22.7586C90.8679 13.3104 83.3069 5.62213 74.0152 5.62213H70.9863C61.6945 5.62213 54.1336 13.3104 54.1336 22.7586V37.1393C54.1336 39.895 55.1584 42.4886 56.9803 44.4338V54.2526C53.2226 56.2672 45.3428 60.7598 37.9869 66.9196C35.459 69.0501 34.0014 72.1763 34.0014 75.5341V98.9694H8.1986V77.3636C8.1986 76.9004 8.40357 76.4836 8.7224 76.2057C15.5318 70.509 22.9105 66.7344 24.3225 66.0396C25.8939 65.2523 26.9188 63.6081 26.9188 61.825V50.5242C26.9188 49.1348 26.2355 47.838 25.0968 47.0506C24.9374 46.958 24.5958 46.6569 24.5958 46.1243V34.4067C24.5958 30.8868 27.4198 28.0153 30.8814 28.0153H33.3638C36.8254 28.0153 39.6494 30.8868 39.6494 34.4067V46.1243C39.6494 46.6569 39.3078 46.958 39.1483 47.0506C37.2581 48.3243 36.7571 50.9179 38.0096 52.84C39.2622 54.762 41.8129 55.2715 43.7031 53.9978C46.2993 52.2379 47.848 49.2969 47.848 46.1243V34.4067C47.848 26.2785 41.3574 19.6786 33.3638 19.6786H30.8814C22.8878 19.6786 16.3972 26.2785 16.3972 34.4067V46.1243C16.3972 48.4632 17.2398 50.6632 18.7201 52.3768V59.6019C15.4863 61.3155 9.31453 64.9049 3.52995 69.768C1.29811 71.6437 0 74.4226 0 77.3867V103.161C0 105.453 1.84469 107.329 4.0993 107.329H38.1007C40.3554 107.329 42.2 105.453 42.2 103.161V75.5341C42.2 74.6773 42.5644 73.89 43.2021 73.3574C51.6284 66.3175 60.7835 61.6166 62.5371 60.7366C64.1541 59.9261 65.1789 58.2356 65.1789 56.4062V42.5349C65.1789 41.1455 64.4957 39.8487 63.357 39.0613C62.7193 38.6213 62.3322 37.9035 62.3322 37.1393V22.7586C62.3322 17.9187 66.2037 13.9588 70.9863 13.9588H74.038C78.7977 13.9588 82.692 17.8955 82.692 22.7586V37.1393C82.692 37.9035 82.3049 38.6445 81.6672 39.0613C80.5285 39.8255 79.8453 41.1455 79.8453 42.5349V56.4062C79.8453 58.2356 80.8929 59.9261 82.4871 60.7366C84.2407 61.6166 93.3958 66.2944 101.822 73.3574C102.46 73.89 102.824 74.6773 102.824 75.5341V98.9694H55.5C53.2454 98.9694 51.4007 100.845 51.4007 103.138C51.4007 105.43 53.2454 107.306 55.5 107.306H106.901C109.155 107.306 111 105.43 111 103.138V75.5341C111 72.1763 109.542 69.0501 107.015 66.9196Z" fill="#F6D3CE" fill-opacity="0.66"/>
</svg>
