<svg width="151" height="151" viewBox="0 0 151 151" fill="none" xmlns="http://www.w3.org/2000/svg">
<g clip-path="url(#clip0)">
<path d="M46.0088 41.2894C57.3921 41.2894 66.6533 32.0281 66.6533 20.6448C66.6533 9.26154 57.3921 0.000305176 46.0088 0.000305176C34.6243 0.000305176 25.3643 9.26154 25.3643 20.6448C25.3643 32.0281 34.6243 41.2894 46.0088 41.2894ZM46.0088 11.7972C50.8865 11.7972 54.8564 15.7671 54.8564 20.6448C54.8564 25.5237 50.8865 29.4925 46.0088 29.4925C41.1299 29.4925 37.1611 25.5237 37.1611 20.6448C37.1611 15.7671 41.1299 11.7972 46.0088 11.7972Z" fill="#EDA69C"/>
<path d="M124.868 64.4902C136.251 64.4902 145.513 55.2289 145.513 43.8456C145.513 32.4623 136.251 23.2011 124.868 23.2011C113.485 23.2011 104.224 32.4623 104.224 43.8456C104.224 55.2289 113.485 64.4902 124.868 64.4902ZM124.868 34.998C129.746 34.998 133.716 38.9668 133.716 43.8456C133.716 48.7245 129.746 52.6933 124.868 52.6933C119.989 52.6933 116.021 48.7245 116.021 43.8456C116.021 38.9668 119.989 34.998 124.868 34.998Z" fill="#EDA69C"/>
<path d="M124.868 67.4391C115.579 67.4391 107.408 72.311 102.772 79.6334H102.768C96.8388 79.6334 92.0153 74.8098 92.0153 68.8803C92.0153 56.4475 81.9004 46.3315 69.4665 46.3315C62.2985 46.3315 28.4933 46.3315 22.5499 46.3315C10.116 46.3315 0 56.4475 0 68.8814C0.00115203 71.765 0.00115203 141.206 0.00115203 145.101C0.00115203 148.359 2.64161 151 5.89957 151H145.102C148.359 151 151.001 148.359 151.001 145.101C151.001 127.255 151.001 103.659 151.001 93.5718C151.001 79.1622 139.277 67.4391 124.868 67.4391ZM124.868 79.2359C132.772 79.2359 139.204 85.6666 139.204 93.5718V96.5199H110.532V93.5718C110.532 85.6666 116.963 79.2359 124.868 79.2359ZM80.2196 68.8803C80.2196 79.979 88.2804 89.2229 98.8537 91.0823C98.6717 93.0039 98.757 94.0753 98.7351 96.5199H68.3583V58.1284H69.4677C75.396 58.1284 80.2196 62.9519 80.2196 68.8803ZM56.5614 58.1284V96.521H35.4562V58.1284H56.5614ZM22.5499 58.1284H23.6582V96.521H11.798V68.8814C11.798 62.9519 16.6215 58.1284 22.5499 58.1284ZM139.204 139.203H11.798V108.317H139.204V139.203Z" fill="#EDA69C"/>
</g>
<defs>
<clipPath id="clip0">
<rect width="151" height="151" fill="white"/>
</clipPath>
</defs>
</svg>
