<svg width="151" height="151" viewBox="0 0 151 151" fill="none" xmlns="http://www.w3.org/2000/svg">
<g clip-path="url(#clip0)">
<path d="M90.2865 120.853C93.0468 117.532 94.708 113.267 94.708 108.621C94.708 98.0489 86.1069 89.4477 75.5346 89.4477C64.9624 89.4477 56.3612 98.0489 56.3612 108.621C56.3612 113.243 58.0052 117.487 60.739 120.803C48.2428 129.914 50.6944 143.691 50.4029 145.1C50.4029 148.358 53.0445 151 56.3025 151H94.6504C97.9084 151 100.55 148.358 100.55 145.1C100.267 143.723 102.705 129.976 90.2865 120.853ZM75.5346 101.247C79.6013 101.247 82.9088 104.554 82.9088 108.621C82.9088 112.688 79.6013 115.995 75.5346 115.995C71.4691 115.995 68.1604 112.688 68.1604 108.621C68.1604 104.554 71.4691 101.247 75.5346 101.247ZM62.3334 139.201C63.2435 132.762 68.7906 127.794 75.477 127.794C82.1623 127.794 87.7094 132.762 88.6195 139.201H62.3334Z" fill="#EDA69C"/>
<path d="M140.71 97.6491C143.47 94.3266 145.131 90.0618 145.131 85.4156C145.131 74.8433 136.53 66.2422 125.958 66.2422C115.386 66.2422 106.785 74.8433 106.785 85.4156C106.785 90.0376 108.429 94.2828 111.161 97.5973C98.6652 106.709 101.117 120.486 100.826 121.895C100.826 125.154 103.467 127.794 106.726 127.794H145.073C148.332 127.794 150.972 125.154 150.972 121.895C150.69 120.517 153.128 106.772 140.71 97.6491ZM125.958 78.0414C130.025 78.0414 133.332 81.3501 133.332 85.4156C133.332 89.4823 130.025 92.7909 125.958 92.7909C121.893 92.7909 118.584 89.4823 118.584 85.4156C118.584 81.3501 121.893 78.0414 125.958 78.0414ZM112.757 115.995C113.667 109.558 119.214 104.59 125.899 104.59C132.585 104.59 138.132 109.558 139.043 115.995H112.757Z" fill="#EDA69C"/>
<path d="M39.9043 97.6491C42.6635 94.3266 44.3259 90.0618 44.3259 85.4156C44.3259 74.8433 35.7247 66.2422 25.1525 66.2422C14.5802 66.2422 5.97794 74.8433 5.97794 85.4156C5.97794 90.0376 7.6219 94.2828 10.3557 97.5973C-2.14047 106.709 0.311064 120.486 0.0195983 121.895C0.0195983 125.154 2.66122 127.794 5.91919 127.794H44.2671C47.5251 127.794 50.1667 125.154 50.1667 121.895C49.8833 120.517 52.3222 106.772 39.9043 97.6491ZM25.1525 78.0414C29.218 78.0414 32.5267 81.3501 32.5267 85.4156C32.5267 89.4823 29.218 92.7909 25.1525 92.7909C21.0858 92.7909 17.7771 89.4823 17.7771 85.4156C17.7771 81.3501 21.0858 78.0414 25.1525 78.0414ZM11.9501 115.995C12.8614 109.558 18.4084 104.59 25.0937 104.59C31.779 104.59 37.3261 109.558 38.2362 115.995H11.9501Z" fill="#EDA69C"/>
<path d="M84.3259 61.5523H122.674C125.932 61.5523 128.573 58.9106 128.573 55.6527C128.29 54.2748 130.728 40.5287 118.31 31.4069C121.069 28.0844 122.731 23.8195 122.731 19.1734C122.731 8.60112 114.13 0 103.558 0C92.9858 0 84.3847 8.60112 84.3847 19.1734C84.3847 23.7954 86.0286 28.0406 88.7624 31.355C76.2663 40.4665 78.7178 54.2437 78.4263 55.6527C78.4263 58.9106 81.068 61.5523 84.3259 61.5523ZM90.3568 49.7531C91.267 43.3143 96.814 38.3468 103.499 38.3468C110.185 38.3468 115.732 43.3143 116.643 49.7531H90.3568ZM103.558 11.7992C107.625 11.7992 110.932 15.1067 110.932 19.1734C110.932 23.2401 107.625 26.5476 103.558 26.5476C99.4914 26.5476 96.1839 23.2401 96.1839 19.1734C96.1839 15.1067 99.4914 11.7992 103.558 11.7992Z" fill="#EDA69C"/>
<path d="M28.2802 61.5523H66.6269C69.8849 61.5523 72.5265 58.9106 72.5265 55.6527C72.2431 54.2748 74.682 40.5287 62.2642 31.4069C65.0233 28.0844 66.6857 23.8195 66.6857 19.1734C66.6857 8.60112 58.0846 0 47.5112 0C36.9389 0 28.3378 8.60112 28.3378 19.1734C28.3378 23.7954 29.9818 28.0406 32.7155 31.355C20.2194 40.4665 22.6709 54.2437 22.3806 55.6527C22.3806 58.9106 25.0211 61.5523 28.2802 61.5523ZM34.31 49.7531C35.2212 43.3143 40.7683 38.3468 47.4536 38.3468C54.1388 38.3468 59.6859 43.3143 60.596 49.7531H34.31ZM47.5112 11.7992C51.5779 11.7992 54.8865 15.1067 54.8865 19.1734C54.8865 23.2401 51.5779 26.5476 47.5112 26.5476C43.4456 26.5476 40.137 23.2401 40.137 19.1734C40.137 15.1067 43.4456 11.7992 47.5112 11.7992Z" fill="#EDA69C"/>
</g>
<defs>
<clipPath id="clip0">
<rect width="151" height="151" fill="white"/>
</clipPath>
</defs>
</svg>
