<svg width="113" height="113" viewBox="0 0 113 113" fill="none" xmlns="http://www.w3.org/2000/svg">
<g clip-path="url(#clip0)">
<path d="M96.4457 16.5543C94.8067 14.9153 92.1374 14.9153 90.4749 16.5543L77.6202 29.409C75.9811 31.0481 75.9811 33.7174 77.6202 35.3798C79.2592 37.0189 81.9285 37.0189 83.591 35.3798L93.3549 25.6158C109.183 44.4648 108.247 72.7265 90.4983 90.4749C71.7665 109.207 41.2804 109.207 22.5485 90.4749C3.81662 71.7431 3.81662 41.2569 22.5485 22.5251C34.0686 11.005 50.4824 6.13469 66.4279 9.48301C68.6523 9.95131 70.9001 8.49959 71.3684 6.20494C71.8367 3.9337 70.385 1.68587 68.1138 1.21758C49.3585 -2.71612 30.0646 3.02052 16.5309 16.5543C5.87712 27.2315 0 41.4208 0 56.5C0 71.5792 5.87712 85.7686 16.5543 96.4457C27.2315 107.123 41.3974 113 56.5 113C71.6026 113 85.7685 107.123 96.4457 96.4457C107.123 85.7686 113 71.6026 113 56.5C113 41.3974 107.123 27.2315 96.4457 16.5543Z" fill="#F6D3CE" fill-opacity="0.66"/>
<path d="M56.4766 17.1858C54.1585 17.1858 52.2619 19.0824 52.2619 21.4005V54.7432L35.45 71.555C33.811 73.1941 33.811 75.8634 35.45 77.5258C36.2696 78.3453 37.3466 78.7668 38.4237 78.7668C39.5008 78.7668 40.5779 78.3453 41.3974 77.5258L59.4503 59.473C59.5439 59.3793 59.6376 59.2622 59.7312 59.1686C59.7781 59.1218 59.8015 59.0749 59.8249 59.0281C59.8717 58.9579 59.9186 58.911 59.9654 58.8408C60.0122 58.7939 60.0356 58.7237 60.0825 58.6535C60.1059 58.6066 60.1527 58.5364 60.1761 58.4661C60.1995 58.3959 60.2464 58.3491 60.2698 58.2788C60.2932 58.2086 60.34 58.1618 60.3634 58.0915C60.3868 58.0213 60.4103 57.9744 60.4337 57.9042C60.4571 57.8339 60.4805 57.7637 60.5039 57.6935C60.5273 57.6232 60.5273 57.5764 60.5508 57.5061C60.5742 57.4359 60.5976 57.3656 60.5976 57.2954C60.621 57.2252 60.621 57.1549 60.621 57.0613C60.621 56.991 60.6444 56.9442 60.6444 56.8739C60.6678 56.7334 60.6678 56.593 60.6678 56.4525V21.4005C60.6912 19.0824 58.7946 17.1858 56.4766 17.1858Z" fill="#F6D3CE" fill-opacity="0.66"/>
</g>
<defs>
<clipPath id="clip0">
<rect width="113" height="113" fill="white"/>
</clipPath>
</defs>
</svg>
