<svg width="110" height="110" viewBox="0 0 110 110" fill="none" xmlns="http://www.w3.org/2000/svg">
<g clip-path="url(#clip0)">
<path d="M83.5878 101.847H76.1818C73.9396 101.847 72.1051 103.681 72.1051 105.923C72.1051 108.166 73.9396 110 76.1818 110H83.5878C85.83 110 87.6645 108.166 87.6645 105.923C87.6645 103.681 85.8526 101.847 83.5878 101.847Z" fill="#F6D3CE" fill-opacity="0.66"/>
<path d="M87.5739 12.3406C73.4867 -1.76929 50.544 -1.76929 36.4341 12.3406C22.3468 26.4278 22.3468 49.3705 36.4341 63.4804C38.0195 65.0658 40.6014 65.0658 42.2094 63.4804C43.8174 61.895 43.7948 59.3131 42.2094 57.7051C31.2929 46.7886 31.2929 29.0324 42.2094 18.0933C53.1259 7.17678 70.8821 7.17678 81.8212 18.0933C92.7377 29.0097 92.7377 46.766 81.8212 57.7051C76.9292 62.5745 70.4518 65.4735 63.5667 65.8585C61.3245 65.9717 59.6033 67.8968 59.7165 70.1617C59.8298 72.3359 61.6416 74.0119 63.7932 74.0119C63.8612 74.0119 63.9517 74.0119 64.0197 74.0119C72.9205 73.5136 81.2777 69.7766 87.5739 63.4804C101.661 49.3932 101.661 26.4505 87.5739 12.3406Z" fill="#F6D3CE" fill-opacity="0.66"/>
<path d="M98.6942 68.8028C97.1088 67.1948 94.5269 67.2401 92.9415 68.8254C75.8874 85.8796 48.1432 85.8796 31.0891 68.8254C14.0349 51.7713 14.0349 24.0271 31.0891 6.97298C32.6745 5.3876 32.6745 2.80569 31.0891 1.19767C29.5037 -0.410363 26.9218 -0.387715 25.3138 1.19767C15.5071 11.0044 10.1168 24.0271 10.1168 37.8879C10.1168 51.7486 15.5071 64.7714 25.3138 74.5781C34.1466 83.4109 45.6066 88.6653 57.9273 89.6166V101.847H40.4202C38.178 101.847 36.3435 103.681 36.3435 105.923C36.3435 108.166 38.178 110 40.4202 110H62.004C64.2462 110 66.0807 108.166 66.0807 105.923V89.6166C78.4013 88.6653 89.8614 83.4109 98.6942 74.5781C100.28 72.9927 100.28 70.4108 98.6942 68.8028Z" fill="#F6D3CE" fill-opacity="0.66"/>
</g>
<defs>
<clipPath id="clip0">
<rect width="110" height="110" fill="white"/>
</clipPath>
</defs>
</svg>
