<svg width="111" height="111" viewBox="0 0 111 111" fill="none" xmlns="http://www.w3.org/2000/svg">
<path d="M93.4683 26.6083C91.2303 26.6083 89.3991 28.4395 89.3991 30.6776V95.7403C89.3991 99.6739 86.2115 102.862 82.2779 102.862H28.7221C24.7885 102.862 21.6009 99.6739 21.6009 95.7403V34.7468H33.1531V41.5289H32.4975C30.2594 41.5289 28.4282 43.3601 28.4282 45.5982C28.4282 47.8363 30.2594 49.6674 32.4975 49.6674H41.9472C44.1852 49.6674 46.0164 47.8363 46.0164 45.5982C46.0164 43.3601 44.1852 41.5289 41.9472 41.5289H41.2916V18.4473C41.2916 12.7729 45.9034 8.13849 51.6003 8.13849H59.3997C65.074 8.13849 69.7085 12.7503 69.7085 18.4473V26.6083H56.506C54.2679 26.6083 52.4368 28.4395 52.4368 30.6776C52.4368 32.9157 54.2679 34.7468 56.506 34.7468H69.7085V41.5289H69.0529C66.8148 41.5289 64.9836 43.3601 64.9836 45.5982C64.9836 47.8363 66.8148 49.6674 69.0529 49.6674H78.5026C80.7406 49.6674 82.5718 47.8363 82.5718 45.5982C82.5718 43.3601 80.7406 41.5289 78.5026 41.5289H77.847V18.4473C77.8244 8.27413 69.5502 0 59.3771 0H51.5777C41.4046 0 33.1305 8.27413 33.1305 18.4473V26.6083H17.5317C15.2936 26.6083 13.4624 28.4395 13.4624 30.6776V95.7403C13.4624 104.15 20.3123 111 28.7221 111H82.2779C90.6877 111 97.5376 104.15 97.5376 95.7403V30.6776C97.5376 28.4395 95.7064 26.6083 93.4683 26.6083Z" fill="#F6D3CE" fill-opacity="0.66"/>
</svg>
