<svg width="111" height="99" viewBox="0 0 111 99" fill="none" xmlns="http://www.w3.org/2000/svg">
<path d="M94.5547 14.5623C84.0916 5.39566 70.2393 0.346069 55.5 0.346069C40.7607 0.346069 26.9084 5.39566 16.4453 14.5623C5.8457 23.8653 0 36.2618 0 49.5C0 59.9403 3.79857 70.176 10.7361 78.5692C9.37131 81.2305 7.50615 83.3459 5.14057 84.8926C3.18443 86.1664 2.25184 88.4637 2.775 90.7383C3.27541 92.9901 5.09508 94.6278 7.36967 94.9463C12.0553 95.6059 21.1992 95.9243 29.6834 90.852C31.6168 89.692 32.2537 87.1672 31.0936 85.2338C29.9336 83.3004 27.4088 82.6635 25.4754 83.8235C21.927 85.9389 18.174 86.8032 14.9213 87.0534C16.7865 84.8243 18.265 82.2086 19.3568 79.2516C19.9027 77.7959 19.5615 76.1809 18.5379 75.0436C11.7596 67.7194 8.18852 58.8713 8.18852 49.5C8.18852 26.9133 29.4105 8.53459 55.5 8.53459C81.5895 8.53459 102.811 26.9133 102.811 49.5C102.811 72.0866 81.5895 90.4653 55.5 90.4653C51.7014 90.4653 47.9484 90.0786 44.309 89.3053C42.1027 88.8504 39.9191 90.2606 39.4641 92.467C38.9865 94.6733 40.4195 96.8569 42.6258 97.3118C46.8338 98.1989 51.1555 98.6539 55.5227 98.6539C70.2393 98.6539 84.1143 93.6043 94.5775 84.4377C105.154 75.1346 111 62.7381 111 49.5C111 36.2618 105.154 23.8653 94.5547 14.5623Z" fill="#F6D3CE" fill-opacity="0.66"/>
</svg>
