<svg width="37.335" height="37.048" fill="none" version="1.1" viewBox="0 0 37.335 37.048" xmlns="http://www.w3.org/2000/svg" xmlns:cc="http://creativecommons.org/ns#" xmlns:dc="http://purl.org/dc/elements/1.1/" xmlns:rdf="http://www.w3.org/1999/02/22-rdf-syntax-ns#">
 <metadata>
  <rdf:RDF>
   <cc:Work rdf:about="">
    <dc:format>image/svg+xml</dc:format>
    <dc:type rdf:resource="http://purl.org/dc/dcmitype/StillImage"/>
    <dc:title/>
   </cc:Work>
  </rdf:RDF>
 </metadata>
 <g clip-rule="evenodd" fill-rule="evenodd">
  <g fill="#b87a00">
   <path d="m24.348 29.27c-2.197 3.009-6.0505 4.5835-9.9102 3.6924-3.8791-0.8956-6.6608-4.0268-7.2983-7.7185 0 0-1.5041-0.8915-2.3645-1.601-0.63752-0.5257-1.5345-1.4567-1.5345-1.4567-0.72173 6.6658 3.6385 12.969 10.334 14.515 6.6944 1.5455 13.375-2.2067 15.65-8.512 0 0-1.215 0.4355-2.0164 0.6328-1.0978 0.2702-2.8601 0.448-2.8601 0.448z"/>
   <path d="m15.591 4.086c0.4307 0.09945 0.8479 0.22646 1.2502 0.37874 0 0 0.9664-0.59505 1.6259-0.89616 1.105-0.50449 2.97-0.9241 2.97-0.9241-1.4412-1.0704-3.1219-1.8676-4.983-2.2973-7.2271-1.6685-14.439 2.8376-16.107 10.065-1.0002 4.3323 0.21845 8.659 2.912 11.789 0 0 0.16213-1.4581 0.4234-2.3555 0.28755-0.9877 1.0244-2.4268 1.0244-2.4268-0.85006-1.8574-1.116-3.9997-0.62094-6.144 1.1918-5.1622 6.3428-8.3809 11.505-7.1891z"/>
   <path d="m33.249 18.008c-0.7059 3.0577-2.8008 5.4334-5.4643 6.6148l0.2556 4.0061c4.3363-1.4089 7.8472-4.9916 8.9475-9.7577 1.6686-7.2272-2.8376-14.439-10.065-16.107-2.3067-0.53256-4.6119-0.43607-6.7357 0.17716l2.4253 3.4002c1.1183-0.15182 2.2825-0.10744 3.4472 0.16146 5.1623 1.1918 8.381 6.3428 7.1892 11.505z"/>
  </g>
  <g fill="#e6a503">
   <path d="m24.348 29.27c0.7414-1.0154 1.2942-2.1942 1.5949-3.4968 0.7059-3.0576-0.1355-6.1113-2.0116-8.3406l1.9859-3.4887c3.2798 3.1672 4.8649 7.9264 3.7645 12.692-0.1167 0.5057-0.2606 0.9981-0.4298 1.476 0 0-1.4754 0.7737-2.504 0.9972-0.9179 0.1994-2.3999 0.1604-2.3999 0.1604zm-12.318-18.286c-4.1383 1.5003-7.4559 5.0023-8.5198 9.6106-0.1227 0.5315-0.21202 1.0629-0.2693 1.5921 0 0 1.0053 1.2847 1.8221 1.9169 0.74283 0.575 2.0867 1.1963 2.0867 1.1963-0.2213-1.2377-0.2014-2.5395 0.0994-3.8421 0.7059-3.0576 2.8007-5.4334 5.4642-6.6147z"/>
   <path d="m11.275 22.78c1.5374 0.3549 3.0738 0.3187 4.505-0.0436l3.0889 2.9782c-2.5667 1.1384-5.5106 1.4845-8.4571 0.8042-2.9002-0.6695-5.3623-2.2317-7.1629-4.3293 0 0 0.17885-1.6924 0.51981-2.7177 0.27813-0.8364 0.93808-2.0529 0.93808-2.0529 1.1965 2.6143 3.5502 4.6643 6.5683 5.3611zm5.5291-18.329c3.9644 1.4822 6.4861 5.4149 6.2022 9.6172l3.3189 3.1291c0.0711-0.2442 0.1357-0.4919 0.1937-0.7429 1.2388-5.3661-0.9263-10.723-5.0819-13.81 0 0-1.5708 0.26125-2.5098 0.63653-0.879 0.35133-2.1231 1.1698-2.1231 1.1698z"/>
   <path d="m21.744 25.197c3.0276 0.699 6.0512-0.1191 8.2747-1.9565 0 0 0.0465 1.394-0.0778 2.2736-0.152 1.0748-0.7424 2.6784-0.7424 2.6784-2.5336 1.0897-5.4244 1.4113-8.3177 0.7433-3.1162-0.7194-5.7265-2.4693-7.5541-4.8067l4.5242-0.8327c1.1004 0.8956 2.4174 1.5599 3.8931 1.9006zm-6.8636-12.611c1.48-4.1062 5.5756-6.6975 9.9104-6.2886 0 0-0.7462-1.2806-1.3767-1.9804-0.6768-0.75122-1.9768-1.6724-1.9768-1.6724-5.0879 0.9523-9.3824 4.8184-10.621 10.184z"/>
  </g>
  <g fill="#fad958">
   <path d="m18.754 14.268c1.8704 0.4318 3.4856 1.3833 4.7284 2.6668l2.2902-3.1289c-1.6705-1.5657-3.764-2.7247-6.1554-3.2768-2.904-0.6704-5.8054-0.3439-8.3457 0.7554 0 0-0.4695 1.3778-0.628 2.2924-0.1773 1.0231-0.1709 2.6532-0.1709 2.6532 2.224-1.8414 5.2508-2.6618 8.2814-1.9621z"/>
   <path d="m22.78 15.591c-0.8511 3.6865-3.7212 6.3819-7.1727 7.1876l1.5402 3.5633c4.5302-1.3081 8.2354-4.9673 9.3714-9.8877 0.1231-0.5331 0.2125-1.0662 0.2698-1.597 0 0-0.6535-0.8835-1.1611-1.3654-0.9216-0.8751-2.7482-1.7428-2.7482-1.7428 0.2213 1.2377 0.2013 2.5395-0.0994 3.842z"/>
   <path d="m20.531 24.832c-4.4411-1.6602-7.0718-6.3955-5.9763-11.14l-3.7389-0.8631c-1.2388 5.366 0.9263 10.723 5.0819 13.81 0 0 1.5708-0.2613 2.5098-0.6365 0.8792-0.3513 2.1235-1.1697 2.1235-1.1697z"/>
  </g>
 </g>
</svg>
