<svg width="111" height="99" viewBox="0 0 111 99" fill="none" xmlns="http://www.w3.org/2000/svg">
<path d="M97.8923 6.87127C93.3285 3.36771 87.9118 1.10884 82.1954 0.371244C72.3763 -0.919542 62.7645 2.07693 55.5038 8.57696C48.2432 2.00778 38.5853 -0.988691 28.72 0.325144C23.0037 1.08579 17.5639 3.36771 12.977 6.91737C4.72522 13.3483 -0.0230273 22.96 2.24963e-05 33.3324C2.24963e-05 42.2065 3.48054 50.5736 9.77312 56.8662L49.6261 96.7192C51.1474 98.2405 53.1297 98.9781 55.112 98.9781C57.0943 98.9781 59.0765 98.2174 60.5978 96.7192L66.7752 90.5419C68.3886 88.9284 68.3886 86.3007 66.7752 84.6642C65.1617 83.0507 62.534 83.0507 60.8975 84.6642L55.112 90.4497L15.6508 50.9654C10.9256 46.2402 8.32098 39.9707 8.29793 33.2863C8.29793 25.5185 11.8476 18.2809 18.071 13.4405C21.4824 10.7897 25.5392 9.08405 29.8034 8.53086C37.6864 7.49362 45.385 10.0752 50.94 15.6532L55.5038 20.2171L60.0216 15.6993C65.5535 10.1443 73.2521 7.56277 81.1121 8.60001C85.3763 9.1532 89.41 10.8358 92.8214 13.4405C99.3214 18.4422 102.917 25.9795 102.687 34.093C102.502 40.4778 99.7133 46.6782 94.8728 51.5417L73.8514 72.54C72.238 74.1535 72.238 76.7812 73.8514 78.4177C75.4649 80.0312 78.0926 80.0312 79.7291 78.4177L100.751 57.3963C107.112 51.0346 110.754 42.8519 110.985 34.3235C111.307 23.5132 106.536 13.5096 97.8923 6.87127Z" fill="#F6D3CE" fill-opacity="0.66"/>
</svg>
