<svg width="111" height="111" viewBox="0 0 111 111" fill="none" xmlns="http://www.w3.org/2000/svg">
<path d="M82.6707 12.2904C75.7871 4.47544 65.8821 0 55.5 0C45.1179 0 35.2128 4.47544 28.3293 12.3131C22.5362 18.8559 19.3557 27.3752 19.3784 36.2352C19.4011 45.0952 22.6044 53.5917 28.4202 60.1345C29.3743 61.2022 30.3966 62.2245 31.4644 63.1787C35.2583 66.5637 36.8713 69.8123 36.8713 74.0833L36.8258 78.3316C36.8031 80.5806 38.6205 82.4435 40.8696 82.4662C40.8923 82.4662 40.8923 82.4662 40.9151 82.4662C43.1641 82.4662 44.9816 80.6715 45.0043 78.4224L45.0497 74.1742V74.1515C45.0724 67.4724 42.4826 62.0655 36.9167 57.0903C36.0988 56.3633 35.3037 55.5454 34.554 54.7276C25.1942 44.1864 25.1715 28.2839 34.4859 17.72C39.8246 11.6543 47.5033 8.17847 55.5227 8.17847C63.5649 8.17847 71.2208 11.6543 76.5595 17.72C85.8512 28.2612 85.8285 44.141 76.5368 54.6594C75.7871 55.5227 74.9693 56.3178 74.1287 57.0903C68.6537 61.9746 66.0866 67.3361 66.0638 73.9243L66.0184 78.377C65.9957 80.6261 67.8131 82.4889 70.0622 82.5117C70.0849 82.5117 70.0849 82.5117 70.1076 82.5117C72.3567 82.5117 74.1742 80.7169 74.1969 78.4679L74.2423 74.0151C74.2196 73.947 74.2196 73.947 74.2423 73.9243C74.265 69.6533 75.8098 66.5182 79.581 63.156C80.6715 62.1791 81.6938 61.1341 82.6707 60.0436C88.441 53.5008 91.6216 45.027 91.6216 36.167C91.6216 27.3297 88.441 18.8332 82.6707 12.2904Z" fill="#F6D3CE" fill-opacity="0.66"/>
<path d="M70.0849 89.3044H40.9151C38.666 89.3044 36.8258 91.1445 36.8258 93.3936C36.8258 95.6427 38.666 97.4828 40.9151 97.4828H70.1077C72.3567 97.4828 74.1742 95.6654 74.1742 93.3936C74.1742 91.1445 72.334 89.3044 70.0849 89.3044Z" fill="#F6D3CE" fill-opacity="0.66"/>
<path d="M63.3604 102.822H47.6169C45.3678 102.822 43.5276 104.662 43.5276 106.911C43.5276 109.16 45.3678 111 47.6169 111H63.3604C65.6095 111 67.4496 109.16 67.4496 106.911C67.4496 104.662 65.6095 102.822 63.3604 102.822Z" fill="#F6D3CE" fill-opacity="0.66"/>
<path d="M58.3852 47.9576L47.0944 36.6668C45.5041 35.0766 42.9142 35.0766 41.3013 36.6668C39.711 38.2571 39.711 40.8469 41.3013 42.4599L51.4108 52.5467C51.4108 58.5442 51.4108 78.377 51.4108 78.377C51.4108 80.6261 53.2509 82.4662 55.5 82.4662C57.7491 82.4662 59.5892 80.6261 59.5892 78.377V51.1609C59.5892 49.6615 59.0667 48.6392 58.3852 47.9576Z" fill="#F6D3CE" fill-opacity="0.66"/>
<path d="M69.6987 36.6441C68.1085 35.0539 65.5186 35.0539 63.9056 36.6441L61.7474 38.8023C60.1572 40.3926 60.1572 42.9824 61.7474 44.5954C62.5426 45.3905 63.5876 45.7994 64.6326 45.7994C65.6777 45.7994 66.7227 45.4132 67.5405 44.5954L69.6987 42.4372C71.289 40.8469 71.289 38.2571 69.6987 36.6441Z" fill="#F6D3CE" fill-opacity="0.66"/>
</svg>
